<?xml version="1.0" encoding="iso-8859-1"?>
<!-- Generator: Adobe Illustrator 16.0.0, SVG Export Plug-In . SVG Version: 6.00 Build 0)  -->
<!DOCTYPE svg PUBLIC "-//W3C//DTD SVG 1.1//EN" "http://www.w3.org/Graphics/SVG/1.1/DTD/svg11.dtd">
<svg xmlns="http://www.w3.org/2000/svg" xmlns:xlink="http://www.w3.org/1999/xlink" version="1.1" id="Capa_1" x="0px" y="0px" width="128px" height="128px" viewBox="0 0 560.4 560.4" style="enable-background:new 0 0 560.4 560.4;" xml:space="preserve">
<g>
	<g>
		<path d="M301.577,48.834C186.215,47.917,24.953,75.762,1.697,212.851c-12.852,75.582,48.348,241.74,147.798,212.976    c-11.934,17.136-22.95,46.512,3.06,56.304c20.808,7.956,38.556-1.224,50.796-15.912c1.53,15.606,7.956,29.988,24.48,34.578    c19.278,5.202,32.742-3.672,41.616-17.442c4.284,16.524,14.994,29.377,36.72,28.152c38.25-2.448,46.512-49.878,43.146-79.56    c106.183,50.489,191.25-73.44,208.08-167.994C584.32,111.871,424.895,49.752,301.577,48.834z M345.641,412.974    c-8.262-4.59-15.3,7.038-8.568,12.546c-1.529,1.53-2.447,3.672-1.836,6.427c3.061,22.949,1.225,47.43-18.972,62.118    c-29.376,21.113-37.943-21.727-35.189-41.311c1.224-8.262-11.322-12.24-12.852-3.672c-3.06,16.523-8.568,37.944-28.764,40.698    c-27.234,3.672-24.174-37.639-20.502-52.632c2.142-8.263-10.404-11.629-12.852-3.673c-5.508,19.278-16.218,36.414-37.944,39.168    c-31.518,4.284-16.524-32.436-8.874-45.594c0.918-1.53,0.612-3.366-0.612-4.59c2.448-2.754,0.306-7.344-4.284-6.731    C52.493,429.499-1.669,278.028,21.587,196.632C53.717,84.637,190.805,68.113,288.112,64.44    c111.996-3.978,259.183,39.474,256.122,176.256C541.787,335.25,451.822,471.115,345.641,412.974z" fill="#ffffff" fill-opacity="1"/>
		<path d="M201.515,211.933c4.59-4.59,0-12.852-6.426-11.016c-21.42,5.814-41.616,26.01-58.446,39.78    c-2.754,2.448-5.508,4.896-8.262,7.344c-8.568-9.792-17.136-19.584-26.01-28.764c-3.978-3.978-11.016,1.224-7.956,6.12    c7.038,11.016,15.606,21.114,24.174,31.212c-15.3,13.77-29.376,29.07-40.698,45.9c-3.978,5.814,5.202,12.853,9.486,7.344    c12.546-15.3,26.01-29.375,40.392-42.534c2.448,2.754,4.896,5.508,7.344,8.568c8.262,9.792,16.524,19.584,24.48,29.988    c4.59,5.813,7.344,11.628,13.464,15.605c4.896,3.366,10.71-2.142,9.486-7.344c-3.672-14.688-22.032-28.764-31.824-40.086    c-4.284-5.202-8.874-10.098-13.158-15.3c1.224-0.918,2.448-2.142,3.672-3.06C159.593,240.084,184.685,229.068,201.515,211.933z" fill="#ffffff" fill-opacity="1"/>
		<path d="M460.696,190.207c-29.376,0.612-60.894,31.824-82.619,48.654c-7.956,6.12-16.219,12.546-24.175,18.972    c-17.136-24.48-35.496-48.042-55.691-69.156c-3.366-3.366-9.792,1.224-6.732,5.202c17.748,23.256,34.578,48.042,50.796,73.44    c-22.031,18.36-43.452,38.25-61.505,59.976c-4.896,5.813,3.06,14.076,8.568,8.568c18.972-19.584,39.168-38.862,60.588-56.917    c16.83,26.316,33.048,52.938,49.878,78.948c-2.142,2.448-2.754,6.427-0.306,9.181c7.649,8.567,6.426,7.956,15.912,13.157    c7.344,3.979,16.829-4.283,11.934-11.934c-21.726-32.13-42.534-66.402-65.178-99.45c31.823-26.01,66.096-48.96,102.51-66.402    C470.488,199.999,467.123,189.9,460.696,190.207z" fill="#ffffff" fill-opacity="1"/>
		<path d="M245.885,357.283c-0.612-8.874-13.158-11.017-15.606-2.143c-3.06,11.017-13.158,19.891-18.054,30.294    c-3.06,6.427,6.12,12.24,9.792,5.814c3.366-5.814,7.65-11.628,12.24-17.442c3.978,8.874,9.792,16.83,12.546,26.622    c1.836,5.814,11.934,7.038,12.852,0C262.409,384.21,246.803,373.195,245.885,357.283z" fill="#ffffff" fill-opacity="1"/>
	</g>
</g>
<g>
</g>
<g>
</g>
<g>
</g>
<g>
</g>
<g>
</g>
<g>
</g>
<g>
</g>
<g>
</g>
<g>
</g>
<g>
</g>
<g>
</g>
<g>
</g>
<g>
</g>
<g>
</g>
<g>
</g>
</svg>
